<mxfile host="app.diagrams.net" agent="Mozilla/5.0 (Windows NT 10.0; Win64; x64) AppleWebKit/537.36 (KHTML, like Gecko) Chrome/130.0.0.0 Safari/537.36 Edg/130.0.0.0" version="24.8.3">
  <diagram name="Page-1" id="YfJ0ZVoNLYwd-vBZIwG5">
    <mxGraphModel dx="1314" dy="766" grid="1" gridSize="10" guides="1" tooltips="1" connect="1" arrows="1" fold="1" page="1" pageScale="1" pageWidth="850" pageHeight="1100" math="0" shadow="0">
      <root>
        <mxCell id="0" />
        <mxCell id="1" parent="0" />
        <mxCell id="ApByVtTv0u2YpeSsVekr-3" value="&lt;font style=&quot;font-size: 22px;&quot;&gt;HOTEL&lt;/font&gt;" style="text;html=1;align=center;verticalAlign=middle;whiteSpace=wrap;rounded=0;" vertex="1" parent="1">
          <mxGeometry x="50" y="20" width="60" height="20" as="geometry" />
        </mxCell>
        <mxCell id="ApByVtTv0u2YpeSsVekr-4" value="" style="rounded=0;whiteSpace=wrap;html=1;" vertex="1" parent="1">
          <mxGeometry x="40" y="40" width="600" height="40" as="geometry" />
        </mxCell>
        <mxCell id="ApByVtTv0u2YpeSsVekr-5" value="HID" style="rounded=0;whiteSpace=wrap;html=1;" vertex="1" parent="1">
          <mxGeometry x="40" y="40" width="110" height="40" as="geometry" />
        </mxCell>
        <mxCell id="ApByVtTv0u2YpeSsVekr-6" value="HName" style="rounded=0;whiteSpace=wrap;html=1;" vertex="1" parent="1">
          <mxGeometry x="150" y="40" width="110" height="40" as="geometry" />
        </mxCell>
        <mxCell id="ApByVtTv0u2YpeSsVekr-7" value="Location" style="rounded=0;whiteSpace=wrap;html=1;" vertex="1" parent="1">
          <mxGeometry x="260" y="40" width="110" height="40" as="geometry" />
        </mxCell>
        <mxCell id="ApByVtTv0u2YpeSsVekr-8" value="Rating" style="rounded=0;whiteSpace=wrap;html=1;" vertex="1" parent="1">
          <mxGeometry x="369" y="40" width="110" height="40" as="geometry" />
        </mxCell>
        <mxCell id="ApByVtTv0u2YpeSsVekr-10" value="" style="rounded=0;whiteSpace=wrap;html=1;" vertex="1" parent="1">
          <mxGeometry x="40" y="160" width="430" height="40" as="geometry" />
        </mxCell>
        <mxCell id="ApByVtTv0u2YpeSsVekr-11" value="RID" style="rounded=0;whiteSpace=wrap;html=1;" vertex="1" parent="1">
          <mxGeometry x="40" y="160" width="110" height="40" as="geometry" />
        </mxCell>
        <mxCell id="ApByVtTv0u2YpeSsVekr-12" value="Type" style="rounded=0;whiteSpace=wrap;html=1;" vertex="1" parent="1">
          <mxGeometry x="150" y="160" width="110" height="40" as="geometry" />
        </mxCell>
        <mxCell id="ApByVtTv0u2YpeSsVekr-13" value="Price" style="rounded=0;whiteSpace=wrap;html=1;" vertex="1" parent="1">
          <mxGeometry x="260" y="160" width="110" height="40" as="geometry" />
        </mxCell>
        <mxCell id="ApByVtTv0u2YpeSsVekr-14" value="availability" style="rounded=0;whiteSpace=wrap;html=1;" vertex="1" parent="1">
          <mxGeometry x="370" y="160" width="110" height="40" as="geometry" />
        </mxCell>
        <mxCell id="ApByVtTv0u2YpeSsVekr-15" value="&lt;span style=&quot;font-size: 22px;&quot;&gt;Rooms&lt;/span&gt;" style="text;html=1;align=center;verticalAlign=middle;whiteSpace=wrap;rounded=0;" vertex="1" parent="1">
          <mxGeometry x="-40" y="140" width="240" height="20" as="geometry" />
        </mxCell>
        <mxCell id="ApByVtTv0u2YpeSsVekr-20" value="contact_num" style="rounded=0;whiteSpace=wrap;html=1;" vertex="1" parent="1">
          <mxGeometry x="479" y="40" width="81" height="40" as="geometry" />
        </mxCell>
        <mxCell id="ApByVtTv0u2YpeSsVekr-21" value="" style="rounded=0;whiteSpace=wrap;html=1;" vertex="1" parent="1">
          <mxGeometry x="41" y="281" width="430" height="40" as="geometry" />
        </mxCell>
        <mxCell id="ApByVtTv0u2YpeSsVekr-22" value="SID" style="rounded=0;whiteSpace=wrap;html=1;" vertex="1" parent="1">
          <mxGeometry x="41" y="281" width="110" height="40" as="geometry" />
        </mxCell>
        <mxCell id="ApByVtTv0u2YpeSsVekr-23" value="SName" style="rounded=0;whiteSpace=wrap;html=1;" vertex="1" parent="1">
          <mxGeometry x="151" y="281" width="110" height="40" as="geometry" />
        </mxCell>
        <mxCell id="ApByVtTv0u2YpeSsVekr-24" value="posititon" style="rounded=0;whiteSpace=wrap;html=1;" vertex="1" parent="1">
          <mxGeometry x="261" y="281" width="110" height="40" as="geometry" />
        </mxCell>
        <mxCell id="ApByVtTv0u2YpeSsVekr-25" value="work_at_specific" style="rounded=0;whiteSpace=wrap;html=1;" vertex="1" parent="1">
          <mxGeometry x="371" y="281" width="110" height="40" as="geometry" />
        </mxCell>
        <mxCell id="ApByVtTv0u2YpeSsVekr-26" value="&lt;span style=&quot;font-size: 22px;&quot;&gt;Staff&lt;/span&gt;" style="text;html=1;align=center;verticalAlign=middle;whiteSpace=wrap;rounded=0;" vertex="1" parent="1">
          <mxGeometry x="-55" y="261" width="240" height="20" as="geometry" />
        </mxCell>
        <mxCell id="ApByVtTv0u2YpeSsVekr-33" value="" style="rounded=0;whiteSpace=wrap;html=1;" vertex="1" parent="1">
          <mxGeometry x="41" y="403" width="209" height="40" as="geometry" />
        </mxCell>
        <mxCell id="ApByVtTv0u2YpeSsVekr-34" value="SID" style="rounded=0;whiteSpace=wrap;html=1;" vertex="1" parent="1">
          <mxGeometry x="41" y="403" width="110" height="40" as="geometry" />
        </mxCell>
        <mxCell id="ApByVtTv0u2YpeSsVekr-35" value="Phone" style="rounded=0;whiteSpace=wrap;html=1;" vertex="1" parent="1">
          <mxGeometry x="151" y="403" width="110" height="40" as="geometry" />
        </mxCell>
        <mxCell id="ApByVtTv0u2YpeSsVekr-37" value="&lt;span style=&quot;font-size: 22px;&quot;&gt;Staff_phone&lt;/span&gt;" style="text;html=1;align=center;verticalAlign=middle;whiteSpace=wrap;rounded=0;" vertex="1" parent="1">
          <mxGeometry x="-22" y="379" width="240" height="20" as="geometry" />
        </mxCell>
        <mxCell id="ApByVtTv0u2YpeSsVekr-38" value="" style="rounded=0;whiteSpace=wrap;html=1;" vertex="1" parent="1">
          <mxGeometry x="40" y="521" width="330" height="40" as="geometry" />
        </mxCell>
        <mxCell id="ApByVtTv0u2YpeSsVekr-39" value="GID" style="rounded=0;whiteSpace=wrap;html=1;" vertex="1" parent="1">
          <mxGeometry x="40" y="521" width="110" height="40" as="geometry" />
        </mxCell>
        <mxCell id="ApByVtTv0u2YpeSsVekr-40" value="GName" style="rounded=0;whiteSpace=wrap;html=1;" vertex="1" parent="1">
          <mxGeometry x="150" y="521" width="110" height="40" as="geometry" />
        </mxCell>
        <mxCell id="ApByVtTv0u2YpeSsVekr-41" value="IDProof" style="rounded=0;whiteSpace=wrap;html=1;" vertex="1" parent="1">
          <mxGeometry x="260" y="521" width="110" height="40" as="geometry" />
        </mxCell>
        <mxCell id="ApByVtTv0u2YpeSsVekr-43" value="&lt;span style=&quot;font-size: 22px;&quot;&gt;Guest&lt;/span&gt;" style="text;html=1;align=center;verticalAlign=middle;whiteSpace=wrap;rounded=0;" vertex="1" parent="1">
          <mxGeometry x="-50" y="501" width="240" height="20" as="geometry" />
        </mxCell>
        <mxCell id="ApByVtTv0u2YpeSsVekr-44" value="" style="rounded=0;whiteSpace=wrap;html=1;" vertex="1" parent="1">
          <mxGeometry x="40" y="645" width="209" height="40" as="geometry" />
        </mxCell>
        <mxCell id="ApByVtTv0u2YpeSsVekr-45" value="GID" style="rounded=0;whiteSpace=wrap;html=1;" vertex="1" parent="1">
          <mxGeometry x="40" y="645" width="110" height="40" as="geometry" />
        </mxCell>
        <mxCell id="ApByVtTv0u2YpeSsVekr-46" value="GPhone" style="rounded=0;whiteSpace=wrap;html=1;" vertex="1" parent="1">
          <mxGeometry x="150" y="645" width="110" height="40" as="geometry" />
        </mxCell>
        <mxCell id="ApByVtTv0u2YpeSsVekr-47" value="&lt;span style=&quot;font-size: 22px;&quot;&gt;Guest_phone&lt;/span&gt;" style="text;html=1;align=center;verticalAlign=middle;whiteSpace=wrap;rounded=0;" vertex="1" parent="1">
          <mxGeometry x="-15" y="621" width="240" height="20" as="geometry" />
        </mxCell>
        <mxCell id="ApByVtTv0u2YpeSsVekr-48" value="" style="rounded=0;whiteSpace=wrap;html=1;" vertex="1" parent="1">
          <mxGeometry x="41" y="783" width="509" height="40" as="geometry" />
        </mxCell>
        <mxCell id="ApByVtTv0u2YpeSsVekr-49" value="BID" style="rounded=0;whiteSpace=wrap;html=1;" vertex="1" parent="1">
          <mxGeometry x="41" y="783" width="110" height="40" as="geometry" />
        </mxCell>
        <mxCell id="ApByVtTv0u2YpeSsVekr-50" value="GID" style="rounded=0;whiteSpace=wrap;html=1;" vertex="1" parent="1">
          <mxGeometry x="151" y="783" width="110" height="40" as="geometry" />
        </mxCell>
        <mxCell id="ApByVtTv0u2YpeSsVekr-51" value="BookingDate" style="rounded=0;whiteSpace=wrap;html=1;" vertex="1" parent="1">
          <mxGeometry x="261" y="783" width="99" height="40" as="geometry" />
        </mxCell>
        <mxCell id="ApByVtTv0u2YpeSsVekr-52" value="&lt;span style=&quot;font-size: 22px;&quot;&gt;Booking&lt;/span&gt;" style="text;html=1;align=center;verticalAlign=middle;whiteSpace=wrap;rounded=0;" vertex="1" parent="1">
          <mxGeometry x="-35" y="762" width="240" height="20" as="geometry" />
        </mxCell>
        <mxCell id="ApByVtTv0u2YpeSsVekr-53" value="INDate" style="rounded=0;whiteSpace=wrap;html=1;" vertex="1" parent="1">
          <mxGeometry x="360" y="783" width="99" height="40" as="geometry" />
        </mxCell>
        <mxCell id="ApByVtTv0u2YpeSsVekr-54" value="OutDate" style="rounded=0;whiteSpace=wrap;html=1;" vertex="1" parent="1">
          <mxGeometry x="459" y="783" width="99" height="40" as="geometry" />
        </mxCell>
        <mxCell id="ApByVtTv0u2YpeSsVekr-55" value="" style="rounded=0;whiteSpace=wrap;html=1;" vertex="1" parent="1">
          <mxGeometry x="40" y="920" width="280" height="40" as="geometry" />
        </mxCell>
        <mxCell id="ApByVtTv0u2YpeSsVekr-56" value="PID" style="rounded=0;whiteSpace=wrap;html=1;" vertex="1" parent="1">
          <mxGeometry x="40" y="920" width="110" height="40" as="geometry" />
        </mxCell>
        <mxCell id="ApByVtTv0u2YpeSsVekr-58" value="Amount" style="rounded=0;whiteSpace=wrap;html=1;" vertex="1" parent="1">
          <mxGeometry x="150" y="920" width="80" height="40" as="geometry" />
        </mxCell>
        <mxCell id="ApByVtTv0u2YpeSsVekr-59" value="&lt;span style=&quot;font-size: 22px;&quot;&gt;Payment&lt;/span&gt;" style="text;html=1;align=center;verticalAlign=middle;whiteSpace=wrap;rounded=0;" vertex="1" parent="1">
          <mxGeometry x="-36" y="899" width="240" height="20" as="geometry" />
        </mxCell>
        <mxCell id="ApByVtTv0u2YpeSsVekr-60" value="pDate" style="rounded=0;whiteSpace=wrap;html=1;" vertex="1" parent="1">
          <mxGeometry x="230" y="920" width="99" height="40" as="geometry" />
        </mxCell>
        <mxCell id="ApByVtTv0u2YpeSsVekr-62" value="" style="rounded=0;whiteSpace=wrap;html=1;" vertex="1" parent="1">
          <mxGeometry x="40" y="1041" width="509" height="40" as="geometry" />
        </mxCell>
        <mxCell id="ApByVtTv0u2YpeSsVekr-63" value="RevID" style="rounded=0;whiteSpace=wrap;html=1;" vertex="1" parent="1">
          <mxGeometry x="40" y="1041" width="110" height="40" as="geometry" />
        </mxCell>
        <mxCell id="ApByVtTv0u2YpeSsVekr-64" value="GID" style="rounded=0;whiteSpace=wrap;html=1;" vertex="1" parent="1">
          <mxGeometry x="150" y="1041" width="110" height="40" as="geometry" />
        </mxCell>
        <mxCell id="ApByVtTv0u2YpeSsVekr-65" value="RDate" style="rounded=0;whiteSpace=wrap;html=1;" vertex="1" parent="1">
          <mxGeometry x="260" y="1041" width="99" height="40" as="geometry" />
        </mxCell>
        <mxCell id="ApByVtTv0u2YpeSsVekr-66" value="&lt;span style=&quot;font-size: 22px;&quot;&gt;Review&lt;/span&gt;" style="text;html=1;align=center;verticalAlign=middle;whiteSpace=wrap;rounded=0;" vertex="1" parent="1">
          <mxGeometry x="-36" y="1020" width="240" height="20" as="geometry" />
        </mxCell>
        <mxCell id="ApByVtTv0u2YpeSsVekr-67" value="Rating" style="rounded=0;whiteSpace=wrap;html=1;" vertex="1" parent="1">
          <mxGeometry x="359" y="1041" width="99" height="40" as="geometry" />
        </mxCell>
        <mxCell id="ApByVtTv0u2YpeSsVekr-68" value="Comment" style="rounded=0;whiteSpace=wrap;html=1;" vertex="1" parent="1">
          <mxGeometry x="458" y="1041" width="99" height="40" as="geometry" />
        </mxCell>
        <mxCell id="ApByVtTv0u2YpeSsVekr-70" value="" style="line;strokeWidth=1;rotatable=0;dashed=0;labelPosition=right;align=left;verticalAlign=middle;spacingTop=0;spacingLeft=6;points=[];portConstraint=eastwest;" vertex="1" parent="1">
          <mxGeometry x="66" y="68" width="60" height="10" as="geometry" />
        </mxCell>
        <mxCell id="ApByVtTv0u2YpeSsVekr-71" value="" style="line;strokeWidth=1;rotatable=0;dashed=0;labelPosition=right;align=left;verticalAlign=middle;spacingTop=0;spacingLeft=6;points=[];portConstraint=eastwest;" vertex="1" parent="1">
          <mxGeometry x="65" y="188" width="60" height="10" as="geometry" />
        </mxCell>
        <mxCell id="ApByVtTv0u2YpeSsVekr-72" value="" style="line;strokeWidth=1;rotatable=0;dashed=0;labelPosition=right;align=left;verticalAlign=middle;spacingTop=0;spacingLeft=6;points=[];portConstraint=eastwest;" vertex="1" parent="1">
          <mxGeometry x="66" y="308" width="60" height="10" as="geometry" />
        </mxCell>
        <mxCell id="ApByVtTv0u2YpeSsVekr-73" value="" style="line;strokeWidth=1;rotatable=0;dashed=0;labelPosition=right;align=left;verticalAlign=middle;spacingTop=0;spacingLeft=6;points=[];portConstraint=eastwest;" vertex="1" parent="1">
          <mxGeometry x="66" y="430" width="60" height="10" as="geometry" />
        </mxCell>
        <mxCell id="ApByVtTv0u2YpeSsVekr-74" value="" style="line;strokeWidth=1;rotatable=0;dashed=0;labelPosition=right;align=left;verticalAlign=middle;spacingTop=0;spacingLeft=6;points=[];portConstraint=eastwest;" vertex="1" parent="1">
          <mxGeometry x="175" y="430" width="60" height="10" as="geometry" />
        </mxCell>
        <mxCell id="ApByVtTv0u2YpeSsVekr-75" value="" style="endArrow=none;html=1;rounded=0;dashed=1;dashPattern=1 2;" edge="1" parent="1">
          <mxGeometry relative="1" as="geometry">
            <mxPoint x="75" y="431" as="sourcePoint" />
            <mxPoint x="115" y="431.5" as="targetPoint" />
          </mxGeometry>
        </mxCell>
        <mxCell id="ApByVtTv0u2YpeSsVekr-77" value="" style="line;strokeWidth=1;rotatable=0;dashed=0;labelPosition=right;align=left;verticalAlign=middle;spacingTop=0;spacingLeft=6;points=[];portConstraint=eastwest;" vertex="1" parent="1">
          <mxGeometry x="68" y="545" width="60" height="10" as="geometry" />
        </mxCell>
        <mxCell id="ApByVtTv0u2YpeSsVekr-78" value="" style="line;strokeWidth=1;rotatable=0;dashed=0;labelPosition=right;align=left;verticalAlign=middle;spacingTop=0;spacingLeft=6;points=[];portConstraint=eastwest;" vertex="1" parent="1">
          <mxGeometry x="66" y="675" width="60" height="10" as="geometry" />
        </mxCell>
        <mxCell id="ApByVtTv0u2YpeSsVekr-79" value="" style="line;strokeWidth=1;rotatable=0;dashed=0;labelPosition=right;align=left;verticalAlign=middle;spacingTop=0;spacingLeft=6;points=[];portConstraint=eastwest;" vertex="1" parent="1">
          <mxGeometry x="175" y="675" width="60" height="10" as="geometry" />
        </mxCell>
        <mxCell id="ApByVtTv0u2YpeSsVekr-80" value="" style="line;strokeWidth=1;rotatable=0;dashed=0;labelPosition=right;align=left;verticalAlign=middle;spacingTop=0;spacingLeft=6;points=[];portConstraint=eastwest;" vertex="1" parent="1">
          <mxGeometry x="68" y="810" width="60" height="10" as="geometry" />
        </mxCell>
        <mxCell id="ApByVtTv0u2YpeSsVekr-81" value="" style="line;strokeWidth=1;rotatable=0;dashed=0;labelPosition=right;align=left;verticalAlign=middle;spacingTop=0;spacingLeft=6;points=[];portConstraint=eastwest;" vertex="1" parent="1">
          <mxGeometry x="68" y="947" width="60" height="10" as="geometry" />
        </mxCell>
        <mxCell id="ApByVtTv0u2YpeSsVekr-82" value="" style="line;strokeWidth=1;rotatable=0;dashed=0;labelPosition=right;align=left;verticalAlign=middle;spacingTop=0;spacingLeft=6;points=[];portConstraint=eastwest;" vertex="1" parent="1">
          <mxGeometry x="66" y="1068" width="60" height="10" as="geometry" />
        </mxCell>
        <mxCell id="ApByVtTv0u2YpeSsVekr-83" value="" style="endArrow=none;html=1;rounded=0;dashed=1;dashPattern=1 2;" edge="1" parent="1">
          <mxGeometry relative="1" as="geometry">
            <mxPoint x="75" y="675" as="sourcePoint" />
            <mxPoint x="115" y="675.5" as="targetPoint" />
          </mxGeometry>
        </mxCell>
        <mxCell id="ApByVtTv0u2YpeSsVekr-84" value="" style="endArrow=none;html=1;rounded=0;dashed=1;dashPattern=1 2;" edge="1" parent="1">
          <mxGeometry relative="1" as="geometry">
            <mxPoint x="186" y="810" as="sourcePoint" />
            <mxPoint x="226" y="810.5" as="targetPoint" />
          </mxGeometry>
        </mxCell>
        <mxCell id="ApByVtTv0u2YpeSsVekr-86" value="" style="endArrow=none;html=1;rounded=0;dashed=1;dashPattern=1 2;" edge="1" parent="1">
          <mxGeometry relative="1" as="geometry">
            <mxPoint x="186" y="1072.5" as="sourcePoint" />
            <mxPoint x="226" y="1073" as="targetPoint" />
          </mxGeometry>
        </mxCell>
        <mxCell id="ApByVtTv0u2YpeSsVekr-87" value="" style="endArrow=classic;html=1;rounded=0;entryX=0.318;entryY=1.025;entryDx=0;entryDy=0;entryPerimeter=0;" edge="1" parent="1" target="ApByVtTv0u2YpeSsVekr-22">
          <mxGeometry width="50" height="50" relative="1" as="geometry">
            <mxPoint x="80" y="440" as="sourcePoint" />
            <mxPoint x="160" y="360" as="targetPoint" />
            <Array as="points">
              <mxPoint x="80" y="460" />
              <mxPoint x="-40" y="460" />
              <mxPoint x="-40" y="360" />
              <mxPoint x="76" y="360" />
            </Array>
          </mxGeometry>
        </mxCell>
        <mxCell id="ApByVtTv0u2YpeSsVekr-88" value="" style="endArrow=classic;html=1;rounded=0;exitX=0.25;exitY=1;exitDx=0;exitDy=0;entryX=0.5;entryY=1;entryDx=0;entryDy=0;" edge="1" parent="1" source="ApByVtTv0u2YpeSsVekr-45" target="ApByVtTv0u2YpeSsVekr-39">
          <mxGeometry width="50" height="50" relative="1" as="geometry">
            <mxPoint x="120" y="720" as="sourcePoint" />
            <mxPoint x="140" y="600" as="targetPoint" />
            <Array as="points">
              <mxPoint x="68" y="720" />
              <mxPoint y="720" />
              <mxPoint y="600" />
              <mxPoint x="95" y="600" />
            </Array>
          </mxGeometry>
        </mxCell>
        <mxCell id="ApByVtTv0u2YpeSsVekr-89" value="" style="endArrow=classic;html=1;rounded=0;exitX=0.436;exitY=0.95;exitDx=0;exitDy=0;exitPerimeter=0;entryX=0.318;entryY=1.05;entryDx=0;entryDy=0;entryPerimeter=0;" edge="1" parent="1" source="ApByVtTv0u2YpeSsVekr-50" target="ApByVtTv0u2YpeSsVekr-39">
          <mxGeometry width="50" height="50" relative="1" as="geometry">
            <mxPoint x="220" y="880" as="sourcePoint" />
            <mxPoint x="130" y="690" as="targetPoint" />
            <Array as="points">
              <mxPoint x="200" y="880" />
              <mxPoint x="-10" y="880" />
              <mxPoint x="-10" y="750" />
              <mxPoint x="-10" y="590" />
              <mxPoint x="75" y="590" />
            </Array>
          </mxGeometry>
        </mxCell>
        <mxCell id="ApByVtTv0u2YpeSsVekr-91" value="" style="endArrow=classic;html=1;rounded=0;entryX=0.182;entryY=1.025;entryDx=0;entryDy=0;entryPerimeter=0;" edge="1" parent="1" target="ApByVtTv0u2YpeSsVekr-39">
          <mxGeometry width="50" height="50" relative="1" as="geometry">
            <mxPoint x="220" y="1040" as="sourcePoint" />
            <mxPoint x="68" y="570" as="targetPoint" />
            <Array as="points">
              <mxPoint x="220" y="1000" />
              <mxPoint x="-40" y="1000" />
              <mxPoint x="-40" y="720" />
              <mxPoint x="-40" y="580" />
              <mxPoint x="60" y="580" />
            </Array>
          </mxGeometry>
        </mxCell>
        <mxCell id="ApByVtTv0u2YpeSsVekr-93" value="&lt;font color=&quot;#f20d0d&quot;&gt;Booking&lt;/font&gt;" style="text;html=1;align=center;verticalAlign=middle;whiteSpace=wrap;rounded=0;" vertex="1" parent="1">
          <mxGeometry x="130" y="850" width="60" height="30" as="geometry" />
        </mxCell>
        <mxCell id="ApByVtTv0u2YpeSsVekr-95" value="&lt;font color=&quot;#f20d0d&quot;&gt;review&lt;/font&gt;" style="text;html=1;align=center;verticalAlign=middle;whiteSpace=wrap;rounded=0;" vertex="1" parent="1">
          <mxGeometry x="140" y="980" width="60" height="30" as="geometry" />
        </mxCell>
        <mxCell id="ApByVtTv0u2YpeSsVekr-96" value="RevID" style="rounded=0;whiteSpace=wrap;html=1;" vertex="1" parent="1">
          <mxGeometry x="557" y="40" width="83" height="40" as="geometry" />
        </mxCell>
        <mxCell id="ApByVtTv0u2YpeSsVekr-97" value="" style="endArrow=none;html=1;rounded=0;dashed=1;dashPattern=1 2;" edge="1" parent="1">
          <mxGeometry relative="1" as="geometry">
            <mxPoint x="580" y="72.5" as="sourcePoint" />
            <mxPoint x="620" y="73" as="targetPoint" />
          </mxGeometry>
        </mxCell>
        <mxCell id="ApByVtTv0u2YpeSsVekr-98" value="" style="endArrow=classic;html=1;rounded=0;exitX=0.5;exitY=1;exitDx=0;exitDy=0;" edge="1" parent="1" source="ApByVtTv0u2YpeSsVekr-96">
          <mxGeometry width="50" height="50" relative="1" as="geometry">
            <mxPoint x="120" y="600" as="sourcePoint" />
            <mxPoint x="110" y="1090" as="targetPoint" />
            <Array as="points">
              <mxPoint x="599" y="100" />
              <mxPoint x="720" y="100" />
              <mxPoint x="720" y="600" />
              <mxPoint x="720" y="760" />
              <mxPoint x="720" y="1120" />
              <mxPoint x="110" y="1120" />
            </Array>
          </mxGeometry>
        </mxCell>
        <mxCell id="ApByVtTv0u2YpeSsVekr-99" value="&lt;font color=&quot;#f20d0d&quot;&gt;review&lt;/font&gt;" style="text;html=1;align=center;verticalAlign=middle;whiteSpace=wrap;rounded=0;" vertex="1" parent="1">
          <mxGeometry x="600" y="100" width="60" height="30" as="geometry" />
        </mxCell>
        <mxCell id="ApByVtTv0u2YpeSsVekr-101" value="HID" style="rounded=0;whiteSpace=wrap;html=1;" vertex="1" parent="1">
          <mxGeometry x="480" y="160" width="110" height="40" as="geometry" />
        </mxCell>
        <mxCell id="ApByVtTv0u2YpeSsVekr-102" value="" style="endArrow=none;html=1;rounded=0;dashed=1;dashPattern=1 2;" edge="1" parent="1">
          <mxGeometry relative="1" as="geometry">
            <mxPoint x="515" y="188.5" as="sourcePoint" />
            <mxPoint x="555" y="189" as="targetPoint" />
          </mxGeometry>
        </mxCell>
        <mxCell id="ApByVtTv0u2YpeSsVekr-103" value="" style="endArrow=classic;html=1;rounded=0;exitX=0.5;exitY=0;exitDx=0;exitDy=0;entryX=0.582;entryY=1.05;entryDx=0;entryDy=0;entryPerimeter=0;" edge="1" parent="1" source="ApByVtTv0u2YpeSsVekr-101" target="ApByVtTv0u2YpeSsVekr-5">
          <mxGeometry width="50" height="50" relative="1" as="geometry">
            <mxPoint x="520" y="140" as="sourcePoint" />
            <mxPoint x="110" y="120" as="targetPoint" />
            <Array as="points">
              <mxPoint x="535" y="120" />
              <mxPoint x="104" y="120" />
            </Array>
          </mxGeometry>
        </mxCell>
        <mxCell id="ApByVtTv0u2YpeSsVekr-104" value="&lt;font color=&quot;#f20d0d&quot;&gt;has&lt;/font&gt;" style="text;html=1;align=center;verticalAlign=middle;whiteSpace=wrap;rounded=0;" vertex="1" parent="1">
          <mxGeometry x="481" y="120" width="60" height="30" as="geometry" />
        </mxCell>
        <mxCell id="ApByVtTv0u2YpeSsVekr-105" value="HID" style="rounded=0;whiteSpace=wrap;html=1;" vertex="1" parent="1">
          <mxGeometry x="479" y="281" width="110" height="40" as="geometry" />
        </mxCell>
        <mxCell id="ApByVtTv0u2YpeSsVekr-106" value="" style="endArrow=none;html=1;rounded=0;dashed=1;dashPattern=1 2;" edge="1" parent="1">
          <mxGeometry relative="1" as="geometry">
            <mxPoint x="515" y="311.5" as="sourcePoint" />
            <mxPoint x="555" y="312" as="targetPoint" />
          </mxGeometry>
        </mxCell>
        <mxCell id="ApByVtTv0u2YpeSsVekr-107" value="" style="endArrow=classic;html=1;rounded=0;entryX=0.182;entryY=1;entryDx=0;entryDy=0;entryPerimeter=0;" edge="1" parent="1" target="ApByVtTv0u2YpeSsVekr-5">
          <mxGeometry width="50" height="50" relative="1" as="geometry">
            <mxPoint x="520" y="280" as="sourcePoint" />
            <mxPoint x="-40" y="80" as="targetPoint" />
            <Array as="points">
              <mxPoint x="520" y="240" />
              <mxPoint x="-40" y="240" />
              <mxPoint x="-40" y="120" />
              <mxPoint x="60" y="120" />
            </Array>
          </mxGeometry>
        </mxCell>
        <mxCell id="ApByVtTv0u2YpeSsVekr-108" value="&lt;font color=&quot;#f20d0d&quot;&gt;has&lt;/font&gt;" style="text;html=1;align=center;verticalAlign=middle;whiteSpace=wrap;rounded=0;" vertex="1" parent="1">
          <mxGeometry x="470" y="240" width="60" height="30" as="geometry" />
        </mxCell>
        <mxCell id="ApByVtTv0u2YpeSsVekr-109" value="&lt;font color=&quot;#f20d0d&quot;&gt;Have&lt;/font&gt;" style="text;html=1;align=center;verticalAlign=middle;whiteSpace=wrap;rounded=0;" vertex="1" parent="1">
          <mxGeometry x="600" y="753" width="60" height="30" as="geometry" />
        </mxCell>
        <mxCell id="ApByVtTv0u2YpeSsVekr-110" value="RID" style="rounded=0;whiteSpace=wrap;html=1;" vertex="1" parent="1">
          <mxGeometry x="558" y="783" width="110" height="40" as="geometry" />
        </mxCell>
        <mxCell id="ApByVtTv0u2YpeSsVekr-111" value="" style="endArrow=classic;html=1;rounded=0;entryX=0.564;entryY=1.05;entryDx=0;entryDy=0;entryPerimeter=0;" edge="1" parent="1" target="ApByVtTv0u2YpeSsVekr-11">
          <mxGeometry width="50" height="50" relative="1" as="geometry">
            <mxPoint x="650" y="780" as="sourcePoint" />
            <mxPoint x="102" y="204" as="targetPoint" />
            <Array as="points">
              <mxPoint x="650" y="660" />
              <mxPoint x="650" y="600" />
              <mxPoint x="650" y="410" />
              <mxPoint x="650" y="220" />
              <mxPoint x="100" y="220" />
            </Array>
          </mxGeometry>
        </mxCell>
        <mxCell id="ApByVtTv0u2YpeSsVekr-112" value="" style="endArrow=none;html=1;rounded=0;dashed=1;dashPattern=1 2;" edge="1" parent="1">
          <mxGeometry relative="1" as="geometry">
            <mxPoint x="593" y="814.5" as="sourcePoint" />
            <mxPoint x="633" y="815" as="targetPoint" />
          </mxGeometry>
        </mxCell>
        <mxCell id="ApByVtTv0u2YpeSsVekr-113" value="&lt;font color=&quot;#f20d0d&quot;&gt;Have&lt;/font&gt;" style="text;html=1;align=center;verticalAlign=middle;whiteSpace=wrap;rounded=0;" vertex="1" parent="1">
          <mxGeometry x="378.5" y="889" width="60" height="30" as="geometry" />
        </mxCell>
        <mxCell id="ApByVtTv0u2YpeSsVekr-114" value="BID" style="rounded=0;whiteSpace=wrap;html=1;" vertex="1" parent="1">
          <mxGeometry x="329" y="920" width="110" height="40" as="geometry" />
        </mxCell>
        <mxCell id="ApByVtTv0u2YpeSsVekr-115" value="" style="endArrow=none;html=1;rounded=0;dashed=1;dashPattern=1 2;" edge="1" parent="1">
          <mxGeometry relative="1" as="geometry">
            <mxPoint x="364" y="951.5" as="sourcePoint" />
            <mxPoint x="404" y="952" as="targetPoint" />
          </mxGeometry>
        </mxCell>
        <mxCell id="ApByVtTv0u2YpeSsVekr-116" value="" style="endArrow=classic;html=1;rounded=0;exitX=0.5;exitY=0;exitDx=0;exitDy=0;" edge="1" parent="1" source="ApByVtTv0u2YpeSsVekr-114">
          <mxGeometry width="50" height="50" relative="1" as="geometry">
            <mxPoint x="400" y="790" as="sourcePoint" />
            <mxPoint x="100" y="820" as="targetPoint" />
            <Array as="points">
              <mxPoint x="384" y="850" />
              <mxPoint x="230" y="850" />
              <mxPoint x="100" y="850" />
              <mxPoint x="100" y="830" />
            </Array>
          </mxGeometry>
        </mxCell>
      </root>
    </mxGraphModel>
  </diagram>
</mxfile>
